<svg width="215" height="43" viewBox="0 0 215 43" fill="none" xmlns="http://www.w3.org/2000/svg">
<path d="M0.3125 26.0398V20.0398L24.3125 9.47159V16.375L7.88068 22.9716L8.10227 22.6136V23.4659L7.88068 23.108L24.3125 29.7045V36.608L0.3125 26.0398ZM46.7273 0.454543L35.4773 42.25H29.2216L40.4716 0.454543H46.7273ZM50.3622 37V2.09091H57.7429V16.4943H72.7259V2.09091H80.0895V37H72.7259V22.5795H57.7429V37H50.3622ZM84.8452 8.17614V2.09091H113.516V8.17614H102.828V37H95.5327V8.17614H84.8452ZM118.237 2.09091H127.339L136.953 25.5455H137.362L146.976 2.09091H156.078V37H148.919V14.2784H148.629L139.595 36.8295H134.72L125.686 14.1932H125.396V37H118.237V2.09091ZM162.159 37V2.09091H169.54V30.9148H184.506V37H162.159ZM214.672 22.767L190.672 33.3352V26.4318L207.104 19.8352L206.882 20.1932V19.3409L207.104 19.6989L190.672 13.1023V6.19886L214.672 16.767V22.767Z" fill="#30CBC2"/>
</svg>
